<?xml version="1.0" standalone="no"?>
<svg xmlns="http://www.w3.org/2000/svg" viewBox="0 0 88.44 36" width="88.44" height="36"><g fill="#489bfa" color="#489bfa" transform="translate(0 3.9999999999999982) scale(0.2800001)"><svg width="100.0" height="100.0" x="0.0" y="0.0" viewBox="0 0 100 100"><g><path d="M89.533,27.231c0.195-0.231,0.388-0.468,0.57-0.723c2.521-3.512,3.087-8.169,1.683-13.841   c-1.049-4.236-2.834-6.742-5.461-7.663c-4.181-1.463-8.47,1.817-12.615,4.99c-2.054,1.573-4.315,3.295-6.213,4.141   c-5.249-2.385-11.43-3.73-17.497-3.73c-6.068,0-12.249,1.346-17.497,3.73c-1.897-0.846-4.159-2.568-6.213-4.141   c-4.146-3.172-8.435-6.453-12.615-4.99c-2.627,0.921-4.412,3.427-5.461,7.663c-1.405,5.671-0.839,10.329,1.683,13.841   c0.183,0.255,0.375,0.491,0.57,0.723c-3.902,3.562-13.99,15.187-9.204,36.942l0.863,3.926l2.182-1.211   c0.938,6.005,3.943,16.163,13.557,22.646l1.638,1.104l3.619-2.336c2.829,1.983,8.473,5.368,14.031,5.368   c0.604,0,1.206-0.056,1.805-0.143c3.086,1.158,6.686,1.827,10.578,1.827c0.159,0,0.308-0.018,0.465-0.021   c0.157,0.003,0.306,0.021,0.465,0.021c3.893,0,7.492-0.669,10.578-1.827c0.599,0.087,1.199,0.143,1.804,0.143   c5.56,0,11.203-3.385,14.032-5.368l3.619,2.336l1.637-1.104c9.614-6.482,12.619-16.641,13.558-22.646l2.182,1.211l0.863-3.926   C103.523,42.418,93.436,30.793,89.533,27.231z M77.349,14.748c2.052-1.571,5.866-4.484,6.995-4.093   c0.236,0.083,0.99,0.864,1.631,3.451c0.957,3.866,0.719,6.85-0.707,8.872c-0.824,1.168-1.967,1.892-2.986,2.338   c-2.475-2.958-5.421-5.587-8.711-7.789C74.847,16.662,76.105,15.7,77.349,14.748z M46.602,16.528v5.165l-7.013-2.216l-1.083,3.426   l7.758,2.449l0.338,0.774v5.292l-0.415-0.579l-18.864-3.627l-0.678,3.527l17.458,3.358l2.499,4.118h3.384h0.029h3.384l2.499-4.118   l17.458-3.358l-0.679-3.527l-18.863,3.627l-0.415,0.579v-5.292l0.338-0.774l7.758-2.449l-1.083-3.426l-7.013,2.216v-5.165   c13.514,1.309,27.486,11.258,30.535,24.895c-4.952,7.711-13.884,9.415-13.983,9.433l0.62,3.538   c0.41-0.071,8.159-1.503,13.972-7.846c0.002,0.13,0.013,0.258,0.013,0.39c0,1.238-0.136,2.526-0.386,3.846   c-5.066,6.479-12.868,7.968-12.961,7.984l0.62,3.539c0.321-0.056,5.175-0.948,10.058-4.404c-2.109,4.854-5.274,9.806-8.803,14.247   c0.032-0.367,0.056-0.738,0.056-1.113c0-6.046-4.391-11.075-10.148-12.095l-2.252-12.745l1.751-0.503   c1.331,2.356,4.031,3.749,6.854,3.274c3.247-0.546,5.531-3.37,5.513-6.56l3.92-1.041l0.918-6.438l-25.79,6.533l3.165,18.363H42.932   l3.165-18.363l-25.79-6.533l1.403,6.567l3.435,0.913c-0.02,3.19,2.266,6.014,5.512,6.56c2.823,0.475,5.523-0.918,6.854-3.274   l1.724,0.656L37.01,58.94c-5.758,1.02-10.149,6.049-10.149,12.095c0,0.375,0.023,0.746,0.057,1.113   c-3.528-4.441-6.693-9.394-8.804-14.247c4.884,3.456,9.736,4.349,10.059,4.404l0.619-3.539c-0.092-0.016-7.895-1.505-12.96-7.984   c-0.25-1.32-0.386-2.607-0.386-3.846c0-0.131,0.01-0.26,0.013-0.39c5.812,6.343,13.562,7.775,13.972,7.846l0.62-3.538   c-0.1-0.018-9.031-1.721-13.983-9.433C19.114,27.786,33.088,17.836,46.602,16.528z M14.025,14.106   c0.641-2.587,1.394-3.368,1.63-3.451c1.13-0.391,4.944,2.522,6.996,4.093c1.242,0.952,2.502,1.914,3.778,2.779   c-3.29,2.201-6.237,4.831-8.711,7.789c-1.021-0.446-2.163-1.169-2.987-2.338C13.307,20.956,13.067,17.972,14.025,14.106z    M25.137,82.335l-1.686-1.37l-3.802,2.451c-9.766-7.873-9.776-21.21-9.775-21.352l0.042-5.135l-3.522,1.951   c-1.747-12.855,2.622-20.844,5.869-24.849c-1.797,4.056-2.805,8.414-2.805,12.905c0,12.214,9.761,26.837,19.344,36.31   c0.096,0.64,0.281,1.26,0.506,1.869C27.504,84.104,25.982,83.021,25.137,82.335z M30.453,71.035c0-3.831,2.489-7.084,5.935-8.243   l-0.488,3.019l11.869,5.792c0.007,0.155,0.011,0.311,0.023,0.465c-0.514,4.313-4.187,7.671-8.636,7.671   C34.356,79.738,30.453,75.834,30.453,71.035z M50,89.354c-4.719,0-15.248-2.637-15.248-6.854c1.369,0.528,2.851,0.83,4.404,0.83   c4.406,0,8.672-2.738,10.844-6.231c0,0-0.005,0.007,0,0c0.006,0.007,0.01-0.007,0.015,0c0,0,0,0-0.015,0   c2.171,3.493,6.438,6.231,10.844,6.231c1.553,0,3.035-0.302,4.404-0.83C65.248,86.717,54.718,89.354,50,89.354z M60.844,79.738   c-4.449,0-8.122-3.357-8.636-7.671c0.013-0.154,0.017-0.31,0.023-0.465l11.869-5.792l-0.488-3.019   c3.444,1.159,5.935,4.412,5.935,8.243C69.547,75.834,65.644,79.738,60.844,79.738z M93.605,58.881l-3.521-1.951l0.042,5.135   c0.001,0.142-0.01,13.479-9.775,21.352l-3.802-2.451l-1.687,1.37c-0.845,0.687-2.366,1.769-4.17,2.781   c0.225-0.609,0.409-1.229,0.506-1.869c9.583-9.473,19.344-24.096,19.344-36.31c0-4.491-1.008-8.849-2.806-12.905   C90.984,38.037,95.353,46.026,93.605,58.881z"></path></g></svg></g><path fill="#61d1b6" fill-rule="nonzero" d="M5.66 17.52Q2.16 17.52 2.16 14.35L2.16 14.35L2.16 6.91L0.46 6.91Q0.26 6.91 0.13 6.78Q0 6.65 0 6.46L0 6.46Q0 6.22 0.22 6.05L0.22 6.05L3.48 2.86Q3.70 2.64 3.89 2.64L3.89 2.64Q4.08 2.64 4.21 2.78Q4.34 2.93 4.34 3.12L4.34 3.12L4.34 5.04L7.06 5.04Q7.46 5.04 7.73 5.30Q7.99 5.57 7.99 5.98L7.99 5.98Q7.99 6.36 7.73 6.64Q7.46 6.91 7.06 6.91L7.06 6.91L4.34 6.91L4.34 14.16Q4.34 15.10 4.79 15.35Q5.23 15.60 5.90 15.60L5.90 15.60Q6.38 15.60 6.86 15.46L6.86 15.46Q6.96 15.43 7.07 15.41Q7.18 15.38 7.34 15.38L7.34 15.38Q7.68 15.38 7.94 15.64Q8.21 15.89 8.21 16.25L8.21 16.25Q8.21 16.80 7.66 17.09L7.66 17.09Q6.72 17.52 5.66 17.52L5.66 17.52ZM11.64 2.54Q11.14 2.54 10.78 2.18Q10.42 1.82 10.42 1.32L10.42 1.32L10.42 1.22Q10.42 0.72 10.78 0.36Q11.14 0 11.64 0L11.64 0L11.78 0Q12.29 0 12.65 0.36Q13.01 0.72 13.01 1.22L13.01 1.22L13.01 1.32Q13.01 1.82 12.65 2.18Q12.29 2.54 11.78 2.54L11.78 2.54L11.64 2.54ZM11.69 17.40Q11.23 17.40 10.92 17.09Q10.61 16.78 10.61 16.32L10.61 16.32L10.61 6.02Q10.61 5.57 10.92 5.24Q11.23 4.92 11.69 4.92L11.69 4.92Q12.17 4.92 12.48 5.23Q12.79 5.54 12.79 6.02L12.79 6.02L12.79 16.32Q12.79 16.78 12.47 17.09Q12.14 17.40 11.69 17.40L11.69 17.40ZM22.30 23.04Q20.90 23.04 19.49 22.68Q18.07 22.32 17.16 21.79L17.16 21.79Q16.73 21.53 16.73 20.95L16.73 20.95Q16.73 20.57 17.00 20.27Q17.28 19.97 17.69 19.97L17.69 19.97Q17.88 19.97 18.12 20.06L18.12 20.06Q19.94 20.98 22.08 20.98L22.08 20.98Q25.75 20.98 25.75 17.06L25.75 17.06L25.75 15.46Q24.05 17.28 21.65 17.28L21.65 17.28Q20.23 17.28 18.90 16.57Q17.57 15.86 16.70 14.46Q15.84 13.06 15.84 11.04L15.84 11.04Q15.84 9.02 16.70 7.62Q17.57 6.22 18.90 5.51Q20.23 4.80 21.65 4.80L21.65 4.80Q24.05 4.80 25.75 6.62L25.75 6.62L25.75 6.02Q25.75 5.57 26.06 5.24Q26.38 4.92 26.83 4.92L26.83 4.92Q27.29 4.92 27.61 5.24Q27.94 5.57 27.94 6.02L27.94 6.02L27.94 16.75Q27.94 19.78 26.47 21.41Q25.01 23.04 22.30 23.04L22.30 23.04ZM22.10 15.29Q23.23 15.29 24.10 14.81Q24.96 14.33 25.75 13.51L25.75 13.51L25.75 8.57Q24.96 7.75 24.10 7.27Q23.23 6.79 22.10 6.79L22.10 6.79Q20.30 6.79 19.16 7.88Q18.02 8.98 18.02 11.04L18.02 11.04Q18.02 13.10 19.16 14.20Q20.30 15.29 22.10 15.29L22.10 15.29ZM37.20 17.52Q34.27 17.52 32.63 15.85Q30.98 14.18 30.98 11.16L30.98 11.16Q30.98 9.46 31.61 8.02Q32.23 6.58 33.53 5.69Q34.82 4.80 36.72 4.80L36.72 4.80Q38.50 4.80 39.79 5.63Q41.09 6.46 41.76 7.84Q42.43 9.22 42.43 10.85L42.43 10.85Q42.43 11.30 42.13 11.62Q41.83 11.93 41.33 11.93L41.33 11.93L33.19 11.93Q33.38 13.61 34.44 14.54Q35.50 15.48 37.39 15.48L37.39 15.48Q38.40 15.48 39.16 15.29Q39.91 15.10 40.63 14.74L40.63 14.74Q40.82 14.64 41.06 14.64L41.06 14.64Q41.45 14.64 41.74 14.90Q42.02 15.17 42.02 15.58L42.02 15.58Q42.02 16.10 41.40 16.46L41.40 16.46Q40.46 16.99 39.55 17.26Q38.64 17.52 37.20 17.52L37.20 17.52ZM33.19 10.15L40.27 10.15Q40.20 8.98 39.66 8.18Q39.12 7.39 38.33 7.02Q37.54 6.65 36.72 6.65L36.72 6.65Q35.90 6.65 35.11 7.02Q34.32 7.39 33.79 8.18Q33.26 8.98 33.19 10.15L33.19 10.15ZM46.39 17.40Q45.94 17.40 45.62 17.09Q45.31 16.78 45.31 16.32L45.31 16.32L45.31 6.02Q45.31 5.57 45.62 5.24Q45.94 4.92 46.39 4.92L46.39 4.92Q46.85 4.92 47.17 5.24Q47.50 5.57 47.50 6.02L47.50 6.02L47.50 7.06Q49.18 4.80 51.26 4.80L51.26 4.80L51.38 4.80Q51.84 4.80 52.14 5.11Q52.44 5.42 52.44 5.88L52.44 5.88Q52.44 6.34 52.13 6.62Q51.82 6.91 51.34 6.91L51.34 6.91L51.22 6.91Q50.06 6.91 49.10 7.48Q48.14 8.04 47.50 9.02L47.50 9.02L47.50 16.32Q47.50 16.78 47.17 17.09Q46.85 17.40 46.39 17.40L46.39 17.40Z" transform="translate(36, 9.36)"></path></svg>